<?xml version="1.0" encoding="UTF-8" standalone="no"?>
<!DOCTYPE svg PUBLIC "-//W3C//DTD SVG 1.0//EN"
 "http://www.w3.org/TR/2001/REC-SVG-20010904/DTD/svg10.dtd" [
 <!ATTLIST svg xmlns:xlink CDATA #FIXED "http://www.w3.org/1999/xlink">
]>
<!-- Generated by Graphviz version 2.20.2 (Mon Mar 30 10:09:11 UTC 2009)
     For user: (steph) Steph Tyszka,,, -->
<!-- Title: controllers_diagram Pages: 1 -->
<svg width="580pt" height="311pt"
 viewBox="0.00 0.00 580.00 311.00" xmlns="http://www.w3.org/2000/svg" xmlns:xlink="http://www.w3.org/1999/xlink">
<g id="graph0" class="graph" transform="scale(1 1) rotate(0) translate(4 307)">
<title>controllers_diagram</title>
<polygon style="fill:white;stroke:white;" points="-4,4 -4,-307 576,-307 576,4 -4,4"/>
<!-- _diagram_info -->
<g id="node1" class="node"><title>_diagram_info</title>
<text text-anchor="start" x="308.5" y="-285.4" style="font-family:Times New Roman;font-size:11.00;">Controllers diagram</text>
<text text-anchor="start" x="308.5" y="-268.4" style="font-family:Times New Roman;font-size:11.00;">Date: Aug 07 2009 &#45; 15:42</text>
<text text-anchor="start" x="308.5" y="-251.4" style="font-family:Times New Roman;font-size:11.00;">Migration version: 20090807142132</text>
<text text-anchor="start" x="308.5" y="-234.4" style="font-family:Times New Roman;font-size:11.00;">Generated by RailRoad 0.5.0</text>
</g>
<!-- ApplicationController -->
<g id="node2" class="node"><title>ApplicationController</title>
<polyline style="fill:none;stroke:black;" points="13,-54 150,-54 "/>
<path style="fill:none;stroke:black;" d="M150,-54C156,-54 162,-60 162,-66"/>
<polyline style="fill:none;stroke:black;" points="162,-66 162,-139 "/>
<path style="fill:none;stroke:black;" d="M162,-139C162,-145 156,-151 150,-151"/>
<polyline style="fill:none;stroke:black;" points="150,-151 13,-151 "/>
<path style="fill:none;stroke:black;" d="M13,-151C7,-151 1,-145 1,-139"/>
<polyline style="fill:none;stroke:black;" points="1,-139 1,-66 "/>
<path style="fill:none;stroke:black;" d="M1,-66C1,-60 7,-54 13,-54"/>
<text text-anchor="middle" x="81" y="-133.9" style="font-family:Times New Roman;font-size:11.00;">ApplicationController</text>
<polyline style="fill:none;stroke:black;" points="1,-126 162,-126 "/>
<polyline style="fill:none;stroke:black;" points="1,-102 162,-102 "/>
<polyline style="fill:none;stroke:black;" points="1,-78 162,-78 "/>
</g>
<!-- BookingsController -->
<g id="node3" class="node"><title>BookingsController</title>
<polyline style="fill:none;stroke:black;" points="190,-1 313,-1 "/>
<path style="fill:none;stroke:black;" d="M313,-1C319,-1 325,-7 325,-13"/>
<polyline style="fill:none;stroke:black;" points="325,-13 325,-189 "/>
<path style="fill:none;stroke:black;" d="M325,-189C325,-195 319,-201 313,-201"/>
<polyline style="fill:none;stroke:black;" points="313,-201 190,-201 "/>
<path style="fill:none;stroke:black;" d="M190,-201C184,-201 178,-195 178,-189"/>
<polyline style="fill:none;stroke:black;" points="178,-189 178,-13 "/>
<path style="fill:none;stroke:black;" d="M178,-13C178,-7 184,-1 190,-1"/>
<text text-anchor="middle" x="251" y="-183.9" style="font-family:Times New Roman;font-size:11.00;">BookingsController</text>
<polyline style="fill:none;stroke:black;" points="178,-176 325,-176 "/>
<text text-anchor="start" x="185.5" y="-158.9" style="font-family:Times New Roman;font-size:11.00;">create</text>
<text text-anchor="start" x="185.5" y="-141.9" style="font-family:Times New Roman;font-size:11.00;">destroy</text>
<text text-anchor="start" x="185.5" y="-124.9" style="font-family:Times New Roman;font-size:11.00;">edit</text>
<text text-anchor="start" x="185.5" y="-107.9" style="font-family:Times New Roman;font-size:11.00;">index</text>
<text text-anchor="start" x="185.5" y="-90.9" style="font-family:Times New Roman;font-size:11.00;">new</text>
<text text-anchor="start" x="185.5" y="-73.9" style="font-family:Times New Roman;font-size:11.00;">show</text>
<text text-anchor="start" x="185.5" y="-56.9" style="font-family:Times New Roman;font-size:11.00;">update</text>
<polyline style="fill:none;stroke:black;" points="178,-49 325,-49 "/>
<polyline style="fill:none;stroke:black;" points="178,-25 325,-25 "/>
</g>
<!-- ApplicationController&#45;&gt;BookingsController -->
<g id="edge2" class="edge"><title>ApplicationController&#45;&gt;BookingsController</title>
<path style="fill:none;stroke:black;" d="M172,-102C174,-102 176,-102 178,-102"/>
<polygon style="fill:none;stroke:black;" points="172,-98.5001 162,-102 172,-105.5 172,-98.5001"/>
</g>
</g>
</svg>
