<?xml version="1.0" encoding="UTF-8" standalone="no"?>
<!DOCTYPE svg PUBLIC "-//W3C//DTD SVG 1.0//EN"
 "http://www.w3.org/TR/2001/REC-SVG-20010904/DTD/svg10.dtd" [
 <!ATTLIST svg xmlns:xlink CDATA #FIXED "http://www.w3.org/1999/xlink">
]>
<!-- Generated by Graphviz version 2.20.2 (Mon Mar 30 10:09:11 UTC 2009)
     For user: (steph) Steph Tyszka,,, -->
<!-- Title: models_diagram Pages: 1 -->
<svg width="642pt" height="368pt"
 viewBox="0.00 0.00 642.00 368.00" xmlns="http://www.w3.org/2000/svg" xmlns:xlink="http://www.w3.org/1999/xlink">
<g id="graph0" class="graph" transform="scale(1 1) rotate(0) translate(4 364)">
<title>models_diagram</title>
<polygon style="fill:white;stroke:white;" points="-4,4 -4,-364 638,-364 638,4 -4,4"/>
<!-- _diagram_info -->
<g id="node1" class="node"><title>_diagram_info</title>
<text text-anchor="start" x="7.5" y="-330.4" style="font-family:Times New Roman;font-size:11.00;">Models diagram</text>
<text text-anchor="start" x="7.5" y="-313.4" style="font-family:Times New Roman;font-size:11.00;">Date: Aug 07 2009 &#45; 15:42</text>
<text text-anchor="start" x="7.5" y="-296.4" style="font-family:Times New Roman;font-size:11.00;">Migration version: 20090807142132</text>
<text text-anchor="start" x="7.5" y="-279.4" style="font-family:Times New Roman;font-size:11.00;">Generated by RailRoad 0.5.0</text>
</g>
<!-- ItemType -->
<g id="node2" class="node"><title>ItemType</title>
<polyline style="fill:none;stroke:black;" points="300,-258 441,-258 "/>
<path style="fill:none;stroke:black;" d="M441,-258C447,-258 453,-264 453,-270"/>
<polyline style="fill:none;stroke:black;" points="453,-270 453,-347 "/>
<path style="fill:none;stroke:black;" d="M453,-347C453,-353 447,-359 441,-359"/>
<polyline style="fill:none;stroke:black;" points="441,-359 300,-359 "/>
<path style="fill:none;stroke:black;" d="M300,-359C294,-359 288,-353 288,-347"/>
<polyline style="fill:none;stroke:black;" points="288,-347 288,-270 "/>
<path style="fill:none;stroke:black;" d="M288,-270C288,-264 294,-258 300,-258"/>
<text text-anchor="middle" x="370" y="-341.9" style="font-family:Times New Roman;font-size:11.00;">ItemType</text>
<polyline style="fill:none;stroke:black;" points="288,-334 453,-334 "/>
<text text-anchor="start" x="295.5" y="-317.4" style="font-family:Times New Roman;font-size:11.00;">name :string</text>
<text text-anchor="start" x="295.5" y="-300.4" style="font-family:Times New Roman;font-size:11.00;">total :integer</text>
<text text-anchor="start" x="295.5" y="-283.4" style="font-family:Times New Roman;font-size:11.00;">created_at :datetime</text>
<text text-anchor="start" x="295.5" y="-266.4" style="font-family:Times New Roman;font-size:11.00;">updated_at :datetime</text>
</g>
<!-- PricedItem -->
<g id="node4" class="node"><title>PricedItem</title>
<polyline style="fill:none;stroke:black;" points="300,-120 441,-120 "/>
<path style="fill:none;stroke:black;" d="M441,-120C447,-120 453,-126 453,-132"/>
<polyline style="fill:none;stroke:black;" points="453,-132 453,-209 "/>
<path style="fill:none;stroke:black;" d="M453,-209C453,-215 447,-221 441,-221"/>
<polyline style="fill:none;stroke:black;" points="441,-221 300,-221 "/>
<path style="fill:none;stroke:black;" d="M300,-221C294,-221 288,-215 288,-209"/>
<polyline style="fill:none;stroke:black;" points="288,-209 288,-132 "/>
<path style="fill:none;stroke:black;" d="M288,-132C288,-126 294,-120 300,-120"/>
<text text-anchor="middle" x="370" y="-203.9" style="font-family:Times New Roman;font-size:11.00;">PricedItem</text>
<polyline style="fill:none;stroke:black;" points="288,-196 453,-196 "/>
<text text-anchor="start" x="295.5" y="-179.4" style="font-family:Times New Roman;font-size:11.00;">name :string</text>
<text text-anchor="start" x="295.5" y="-162.4" style="font-family:Times New Roman;font-size:11.00;">price :decimal</text>
<text text-anchor="start" x="295.5" y="-145.4" style="font-family:Times New Roman;font-size:11.00;">created_at :datetime</text>
<text text-anchor="start" x="295.5" y="-128.4" style="font-family:Times New Roman;font-size:11.00;">updated_at :datetime</text>
</g>
<!-- ItemType&#45;&gt;PricedItem -->
<g id="edge2" class="edge"><title>ItemType&#45;&gt;PricedItem</title>
<path style="fill:none;stroke:black;" d="M370,-248C370,-242 370,-235 370,-229"/>
<polygon style="fill:black;stroke:black;" points="370,-248 365.5,-258 370,-253 370,-258 370,-258 370,-258 370,-253 374.5,-258 370,-248 370,-248"/>
<ellipse style="fill:black;stroke:black;" cx="370" cy="-225" rx="4" ry="4"/>
</g>
<!-- Booking -->
<g id="node3" class="node"><title>Booking</title>
<polyline style="fill:none;stroke:black;" points="482,-120 623,-120 "/>
<path style="fill:none;stroke:black;" d="M623,-120C629,-120 635,-126 635,-132"/>
<polyline style="fill:none;stroke:black;" points="635,-132 635,-209 "/>
<path style="fill:none;stroke:black;" d="M635,-209C635,-215 629,-221 623,-221"/>
<polyline style="fill:none;stroke:black;" points="623,-221 482,-221 "/>
<path style="fill:none;stroke:black;" d="M482,-221C476,-221 470,-215 470,-209"/>
<polyline style="fill:none;stroke:black;" points="470,-209 470,-132 "/>
<path style="fill:none;stroke:black;" d="M470,-132C470,-126 476,-120 482,-120"/>
<text text-anchor="middle" x="552" y="-203.9" style="font-family:Times New Roman;font-size:11.00;">Booking</text>
<polyline style="fill:none;stroke:black;" points="470,-196 635,-196 "/>
<text text-anchor="start" x="477.5" y="-179.4" style="font-family:Times New Roman;font-size:11.00;">arrival :date</text>
<text text-anchor="start" x="477.5" y="-162.4" style="font-family:Times New Roman;font-size:11.00;">departure :date</text>
<text text-anchor="start" x="477.5" y="-145.4" style="font-family:Times New Roman;font-size:11.00;">created_at :datetime</text>
<text text-anchor="start" x="477.5" y="-128.4" style="font-family:Times New Roman;font-size:11.00;">updated_at :datetime</text>
</g>
<!-- BookingItem -->
<g id="node5" class="node"><title>BookingItem</title>
<polyline style="fill:none;stroke:black;" points="391,-0 532,-0 "/>
<path style="fill:none;stroke:black;" d="M532,-0C538,-0 544,-6 544,-12"/>
<polyline style="fill:none;stroke:black;" points="544,-12 544,-72 "/>
<path style="fill:none;stroke:black;" d="M544,-72C544,-78 538,-84 532,-84"/>
<polyline style="fill:none;stroke:black;" points="532,-84 391,-84 "/>
<path style="fill:none;stroke:black;" d="M391,-84C385,-84 379,-78 379,-72"/>
<polyline style="fill:none;stroke:black;" points="379,-72 379,-12 "/>
<path style="fill:none;stroke:black;" d="M379,-12C379,-6 385,-0 391,-0"/>
<text text-anchor="middle" x="461" y="-66.9" style="font-family:Times New Roman;font-size:11.00;">BookingItem</text>
<polyline style="fill:none;stroke:black;" points="379,-59 544,-59 "/>
<text text-anchor="start" x="386.5" y="-41.9" style="font-family:Times New Roman;font-size:11.00;">quantity :integer</text>
<text text-anchor="start" x="386.5" y="-24.9" style="font-family:Times New Roman;font-size:11.00;">created_at :datetime</text>
<text text-anchor="start" x="386.5" y="-7.9" style="font-family:Times New Roman;font-size:11.00;">updated_at :datetime</text>
</g>
<!-- Booking&#45;&gt;BookingItem -->
<g id="edge4" class="edge"><title>Booking&#45;&gt;BookingItem</title>
<path style="fill:none;stroke:black;" d="M510,-112C505,-105 500,-98 496,-91"/>
<polygon style="fill:black;stroke:black;" points="510,-112 512.4,-122.7 513,-116 516,-120 516,-120 516,-120 513,-116 519.6,-117.3 510,-112 510,-112"/>
<ellipse style="fill:black;stroke:black;" cx="493.325" cy="-87.2549" rx="4.00002" ry="4.00002"/>
</g>
<!-- PricedItem&#45;&gt;BookingItem -->
<g id="edge6" class="edge"><title>PricedItem&#45;&gt;BookingItem</title>
<path style="fill:none;stroke:black;" d="M412,-112C417,-105 422,-98 426,-91"/>
<polygon style="fill:black;stroke:black;" points="412,-112 402.4,-117.3 409,-116 406,-120 406,-120 406,-120 409,-116 409.6,-122.7 412,-112 412,-112"/>
<ellipse style="fill:black;stroke:black;" cx="428.675" cy="-87.2549" rx="4.00002" ry="4.00002"/>
</g>
</g>
</svg>
